<svg width="1255" height="389" viewBox="0 0 1255 389" fill="none" xmlns="http://www.w3.org/2000/svg">
<path d="M23.8711 388.5V108.292H1254V338.709L1178.88 388.5H23.8711Z" fill="#75EB3E" stroke="#2B2B2B"/>
<path d="M16.0811 378.5V101.195H1243V328.709L1167.88 378.5H16.0811Z" fill="#75EB3E" stroke="#2B2B2B"/>
<path d="M8.29004 368.5V94.0974H1230.5V318.709L1155.38 368.5H8.29004Z" fill="#75EB3E" stroke="#2B2B2B"/>
<path d="M0.5 358.5V0.5H1217V307.029L1141.88 358.5H0.5Z" fill="#F8F7F6" stroke="#2B2B2B"/>
<g clip-path="url(#clip0_143_216)">
<rect x="0.738972" y="0.286912" width="141.476" height="84.8482" transform="matrix(0.701778 -0.712397 0.0371948 0.999308 612.673 71.0152)" stroke="#75EB3E" stroke-width="2"/>
<rect x="0.738972" y="0.286912" width="141.476" height="84.8482" transform="matrix(0.701778 -0.712397 0.0371948 0.999308 642.547 71.0152)" stroke="#75EB3E" stroke-width="2"/>
<rect x="0.738972" y="0.286912" width="141.476" height="84.8482" transform="matrix(0.701778 -0.712397 0.0371948 0.999308 672.421 71.0152)" stroke="#75EB3E" stroke-width="2"/>
<rect x="0.738972" y="0.286912" width="141.476" height="84.8482" transform="matrix(0.701778 -0.712397 0.0371948 0.999308 702.296 71.0152)" stroke="#75EB3E" stroke-width="2"/>
<rect x="0.738972" y="0.286912" width="141.476" height="84.8482" transform="matrix(0.701778 -0.712397 0.0371948 0.999308 732.171 71.0152)" stroke="#75EB3E" stroke-width="2"/>
<rect x="0.738972" y="0.286912" width="141.476" height="84.8482" transform="matrix(0.701778 -0.712397 0.0371948 0.999308 762.045 71.0152)" stroke="#75EB3E" stroke-width="2"/>
<rect x="0.738972" y="0.286912" width="141.476" height="84.8482" transform="matrix(0.701778 -0.712397 0.0371948 0.999308 791.919 71.0152)" stroke="#75EB3E" stroke-width="2"/>
<rect x="0.738972" y="0.286912" width="141.476" height="84.8482" transform="matrix(0.701778 -0.712397 0.0371948 0.999308 821.793 71.0152)" stroke="#75EB3E" stroke-width="2"/>
<rect x="0.738972" y="0.286912" width="141.476" height="84.8482" transform="matrix(0.701778 -0.712397 0.0371948 0.999308 851.669 71.0152)" stroke="#75EB3E" stroke-width="2"/>
<rect x="0.738972" y="0.286912" width="141.476" height="84.8482" transform="matrix(0.701778 -0.712397 0.0371948 0.999308 881.543 71.0149)" stroke="#75EB3E" stroke-width="2"/>
<rect x="0.738972" y="0.286912" width="141.476" height="84.8482" transform="matrix(0.701778 -0.712397 0.0371948 0.999308 911.417 71.0149)" stroke="#75EB3E" stroke-width="2"/>
<rect x="0.738972" y="0.286912" width="141.476" height="84.8482" transform="matrix(0.701778 -0.712397 0.0371948 0.999308 941.291 71.0149)" stroke="#75EB3E" stroke-width="2"/>
</g>
<defs>
<clipPath id="clip0_143_216">
<rect width="518" height="189" fill="white" transform="translate(560 1)"/>
</clipPath>
</defs>
</svg>
