<svg width="1297" height="399" viewBox="0 0 1297 399" fill="none" xmlns="http://www.w3.org/2000/svg">
<path d="M21.5 43.7495H1276.43V346.736L1200.85 398.208H21.5V43.7495Z" fill="#9B3ABD" stroke="#2B2B2B"/>
<path d="M16.5 38.7495H1271.43V334.736L1195.85 386.208H16.5V38.7495Z" fill="#9B3ABD" stroke="#2B2B2B"/>
<path d="M11.5 33.7495H1266.43V323.277L1190.85 374.75H11.5V33.7495Z" fill="#9B3ABD" stroke="#2B2B2B"/>
<path d="M6.5 28.7495H1261.43V312.736L1185.85 364.208H6.5V28.7495Z" fill="#9B3ABD" stroke="#2B2B2B"/>
<path d="M0.5 23.7495H1255.43V302.736L1179.85 354.208H0.5V23.7495Z" fill="white" stroke="#2B2B2B"/>
<rect x="1020.65" y="0.586218" width="280.098" height="80.1036" transform="rotate(11 1020.65 0.586218)" fill="#75EB3E" stroke="#2B2B2B"/>
<rect x="1024.3" y="5.98905" width="270.881" height="70.8873" transform="rotate(11 1024.3 5.98905)" fill="#75EB3E" stroke="#2B2B2B"/>
<rect x="1027.94" y="11.3919" width="261.665" height="61.671" transform="rotate(11 1027.94 11.3919)" fill="#75EB3E" stroke="#2B2B2B"/>
<path d="M1086.53 35.4538L1099.14 37.9057L1098.11 43.2065L1091.04 41.8326L1089.18 51.4035L1094.73 52.4816L1093.65 58.0278L1088.11 56.9497L1086.05 67.5022L1093.42 68.9332L1092.34 74.4794L1079.43 71.9703L1086.53 35.4538ZM1093.95 74.7933L1101.05 38.2768L1109.54 39.9273C1111.8 40.3661 1113.29 41.2831 1114 42.6782C1114.72 44.0406 1114.86 45.8671 1114.41 48.1575L1110.09 70.3914C1109.15 75.2341 1106.6 77.2516 1102.44 76.4438L1093.95 74.7933ZM1105.63 44.3121L1100.53 70.5706L1101.86 70.8282C1102.67 70.9872 1103.27 70.8826 1103.65 70.5145C1104.06 70.12 1104.37 69.4156 1104.57 68.4012L1108.57 47.8362C1108.77 46.7891 1108.76 46.0242 1108.55 45.5416C1108.34 45.059 1107.89 44.7509 1107.2 44.6174L1105.63 44.3121ZM1112.27 70.1026L1117.82 41.5372L1123.47 42.6344L1117.85 71.5433C1117.51 73.2775 1117.93 74.2591 1119.11 74.4881C1120.32 74.7234 1121.1 73.974 1121.43 72.2397L1127.05 43.3308L1132.7 44.428L1127.14 72.9933C1126.06 78.5886 1123.19 80.9347 1118.54 80.0315L1117.56 79.8407C1112.95 78.9439 1111.18 75.6978 1112.27 70.1026ZM1138.27 75.7154L1139.92 67.2243L1145.36 68.2833L1143.72 76.7253C1142.7 81.9934 1139.98 84.1981 1135.56 83.3394L1134.33 83.1009C1129.79 82.2168 1128.01 79.2062 1129.01 74.069L1133.34 51.7861C1133.75 49.6919 1134.61 48.0595 1135.92 46.8888C1137.24 45.6853 1139.07 45.3093 1141.39 45.7609L1142.66 46.009C1144.1 46.2888 1145.26 46.7337 1146.12 47.3435C1147.02 47.9597 1147.6 48.7181 1147.87 49.6188C1148.14 50.5195 1148.26 51.3752 1148.24 52.186C1148.26 52.9704 1148.16 53.8861 1147.96 54.9332L1146.69 61.461L1141.24 60.402L1142.49 53.9723C1142.8 52.369 1142.34 51.4465 1141.09 51.2048C1140.44 51.0776 1139.94 51.1849 1139.61 51.5267C1139.31 51.8421 1139.07 52.4251 1138.91 53.2759L1134.69 74.9698C1134.37 76.6386 1134.79 77.5875 1135.97 77.8165C1137.18 78.0518 1137.95 77.3514 1138.27 75.7154ZM1153.51 86.3698L1154.11 79.3553L1150.04 78.5635L1148.01 85.3013L1143.06 84.3377L1154.62 48.6894L1161.2 49.9678L1158.86 87.4097L1153.51 86.3698ZM1155.73 60.0092L1151.68 73.2299L1154.58 73.7928L1155.73 60.0092ZM1164.06 50.5253L1178.89 53.4065L1177.86 58.7073L1173.19 57.801L1167.13 89.0167L1161.63 87.9482L1167.7 56.7324L1163.03 55.8261L1164.06 50.5253ZM1186.02 54.7929L1178.92 91.3094L1173.38 90.2313L1180.47 53.7148L1186.02 54.7929ZM1201.75 66.1531L1197.79 86.5218C1196.68 92.248 1193.76 94.6531 1189.05 93.7372L1188.12 93.556C1183.34 92.6274 1181.51 89.3 1182.62 83.5738L1186.57 63.2542C1187.66 57.6589 1190.58 55.3224 1195.32 56.2446L1196.25 56.4259C1198.81 56.922 1200.48 57.9948 1201.28 59.6444C1202.12 61.3004 1202.27 63.47 1201.75 66.1531ZM1192.07 85.8173L1196.15 64.8105C1196.52 62.9454 1196.06 61.8889 1194.78 61.6408C1193.47 61.3864 1192.64 62.1917 1192.28 64.0568L1188.19 85.0636C1187.83 86.9287 1188.32 87.9917 1189.66 88.2524C1190.9 88.4941 1191.71 87.6824 1192.07 85.8173ZM1205.4 58.5595L1210.4 59.5327L1211.36 80.0416L1215.16 60.4581L1220.22 61.4408L1213.12 97.9573L1208.61 97.0796L1207.39 75.0424L1203.31 96.0492L1198.3 95.0761L1205.4 58.5595Z" fill="#2B2B2B"/>
</svg>
