<svg width="17" height="10" viewBox="0 0 17 10" fill="none" xmlns="http://www.w3.org/2000/svg">
<path d="M0.231771 1.04427C0.0347319 0.847232 0.0370637 0.525436 0.236979 0.325521C0.436895 0.125605 0.75869 0.123273 0.955729 0.320313L8.80468 8.16927C9.00172 8.36631 8.99939 8.68811 8.79948 8.88802C8.59956 9.08794 8.27777 9.09027 8.08073 8.89323L0.231771 1.04427Z" fill="#2B2B2B"/>
<path d="M16.0495 0.210937C16.2494 0.0110216 16.5712 0.00868973 16.7682 0.205729C16.9653 0.402768 16.9629 0.724564 16.763 0.924479L8.79948 8.88802C8.59956 9.08794 8.27777 9.09027 8.08073 8.89323C7.88369 8.69619 7.88602 8.37439 8.08593 8.17448L16.0495 0.210937Z" fill="#2B2B2B"/>
</svg>
