<svg width="40" height="41" viewBox="0 0 40 41" fill="none" xmlns="http://www.w3.org/2000/svg">
<path fill-rule="evenodd" clip-rule="evenodd" d="M28.9999 25.5783V28.5783C29.0022 29.1414 28.767 29.6795 28.352 30.0602C27.937 30.4409 27.3808 30.629 26.8199 30.5783C23.7428 30.2439 20.7869 29.1924 18.1899 27.5083C15.7738 25.973 13.7253 23.9245 12.1899 21.5083C10.4999 18.8995 9.44818 15.9293 9.11994 12.8383C9.06941 12.2792 9.25621 11.7246 9.63471 11.3099C10.0132 10.8953 10.5485 10.6588 11.1099 10.6583H14.1099C15.1138 10.6484 15.9694 11.3843 16.1099 12.3783C16.2366 13.3384 16.4714 14.281 16.8099 15.1883C17.0847 15.9192 16.909 16.7431 16.3599 17.2983L15.0899 18.5683C16.5135 21.0718 18.5864 23.1447 21.0899 24.5683L22.3599 23.2983C22.9151 22.7493 23.7391 22.5736 24.4699 22.8483C25.3772 23.1869 26.3199 23.4217 27.2799 23.5483C28.2855 23.6902 29.0251 24.5631 28.9999 25.5783Z" stroke="#2B2B2B" stroke-width="2" stroke-linecap="round" stroke-linejoin="round"/>
<rect x="0.5" y="1.1582" width="39" height="39" stroke="#D8D8D8"/>
</svg>
