<svg width="19" height="16" viewBox="0 0 19 16" fill="none" xmlns="http://www.w3.org/2000/svg">
<path d="M1.16486 6.96804C1.16486 6.96804 9.5681 3.45574 12.4825 2.21897C13.5997 1.72431 17.3884 0.141238 17.3884 0.141238C17.3884 0.141238 19.1371 -0.551294 18.9914 1.13064C18.9428 1.82324 18.5542 4.2472 18.1656 6.8691C17.5827 10.5793 16.9513 14.6358 16.9513 14.6358C16.9513 14.6358 16.8541 15.7736 16.0284 15.9715C15.2026 16.1694 13.8425 15.279 13.5997 15.081C13.4054 14.9327 9.95667 12.7065 8.69376 11.6182C8.35373 11.3214 7.96517 10.7278 8.7423 10.0352C10.491 8.40267 12.5796 6.37444 13.8425 5.08824C14.4255 4.49457 15.0083 3.10944 12.5796 4.79137C9.13093 7.2154 5.73078 9.49101 5.73078 9.49101C5.73078 9.49101 4.95358 9.98567 3.49639 9.54044C2.03913 9.09527 0.339054 8.5016 0.339054 8.5016C0.339054 8.5016 -0.826645 7.75957 1.16486 6.96804Z" fill="#C0C0C0"/>
</svg>
