<svg width="20" height="20" viewBox="0 0 20 20" fill="none" xmlns="http://www.w3.org/2000/svg">
<path d="M17.0861 2.90644C15.206 1.0332 12.7057 0.00105288 10.0417 0C4.55293 0 0.0856938 4.44554 0.0834972 9.90984C0.0827922 11.6565 0.541336 13.3615 1.41276 14.8644L0 20L5.27899 18.6219C6.73351 19.4114 8.37108 19.8275 10.0378 19.8282H10.0419C15.5301 19.8282 19.9978 15.3821 20 9.91773C20.0011 7.26967 18.9662 4.77968 17.0861 2.90644ZM10.0419 18.1544H10.0385C8.55329 18.1538 7.0966 17.7567 5.82581 17.0062L5.52355 16.8277L2.39092 17.6455L3.22708 14.6059L3.03023 14.2942C2.20171 12.9827 1.76413 11.4669 1.76478 9.91049C1.76657 5.36881 5.47959 1.67381 10.0451 1.67381C12.2558 1.67465 14.3339 2.53262 15.8966 4.08956C17.4593 5.6465 18.3194 7.71612 18.3186 9.91711C18.3168 14.4592 14.6039 18.1544 10.0419 18.1544ZM14.5819 11.9852C14.333 11.8612 13.1097 11.2621 12.8816 11.1795C12.6536 11.0968 12.4877 11.0555 12.3218 11.3035C12.156 11.5513 11.6791 12.1091 11.5339 12.2744C11.3888 12.4397 11.2436 12.4603 10.9948 12.3364C10.746 12.2124 9.94427 11.9509 8.99388 11.1073C8.25423 10.4508 7.75482 9.63976 7.60968 9.39182C7.46454 9.14391 7.59425 9.00993 7.7188 8.88644C7.83072 8.77551 7.96761 8.59722 8.09203 8.45263C8.21643 8.30806 8.25792 8.20471 8.34084 8.03946C8.4238 7.87419 8.38231 7.72957 8.3201 7.60562C8.25792 7.48168 7.76027 6.26282 7.55292 5.76702C7.35097 5.28415 7.14579 5.34948 6.99306 5.3419C6.84809 5.33472 6.68204 5.3332 6.51619 5.3332C6.35033 5.3332 6.08075 5.39516 5.85268 5.64308C5.62462 5.89099 4.98183 6.49008 4.98183 7.70891C4.98183 8.92775 5.8734 10.1053 5.99782 10.2705C6.12224 10.4358 7.75235 12.937 10.2484 14.0097C10.8421 14.2648 11.3055 14.4172 11.6669 14.5313C12.2629 14.7197 12.8054 14.6931 13.2341 14.6294C13.7122 14.5583 14.7062 14.0304 14.9136 13.4519C15.121 12.8735 15.121 12.3777 15.0588 12.2744C14.9966 12.1711 14.8307 12.1091 14.5819 11.9852Z" fill="#C0C0C0"/>
</svg>
